<?xml version="1.0" standalone="no"?>
<!DOCTYPE svg PUBLIC "-//W3C//DTD SVG 20010904//EN"
 "http://www.w3.org/TR/2001/REC-SVG-20010904/DTD/svg10.dtd">
<svg version="1.0" xmlns="http://www.w3.org/2000/svg"
 width="512.000000pt" height="512.000000pt" viewBox="0 0 512.000000 512.000000"
 preserveAspectRatio="xMidYMid meet">

<g transform="translate(0.000000,512.000000) scale(0.100000,-0.100000)"
fill="#000000" stroke="none">
<path d="M2300 4634 c-185 -35 -335 -149 -418 -319 -61 -125 -71 -253 -32
-435 12 -58 23 -143 23 -189 l2 -85 -38 -8 c-123 -26 -206 -122 -215 -249 -10
-143 72 -257 210 -293 38 -9 54 -19 56 -32 11 -60 59 -179 98 -241 40 -65 173
-203 195 -203 5 0 9 -37 9 -83 l0 -83 -35 4 c-32 4 -47 -5 -143 -76 -61 -46
-161 -109 -232 -145 -289 -146 -519 -334 -620 -507 -37 -63 -108 -254 -205
-550 -39 -122 -46 -153 -41 -194 7 -63 48 -148 88 -181 68 -57 105 -69 238
-75 l125 -5 3 -28 3 -27 -279 0 c-278 0 -279 0 -300 -23 -31 -33 -29 -80 4
-106 l27 -21 1737 0 1737 0 27 21 c34 27 36 77 3 107 -23 22 -30 22 -300 22
l-277 0 0 29 0 29 128 4 c136 4 170 14 240 73 40 34 81 118 89 182 5 46 -4 79
-92 340 -108 320 -135 384 -200 471 -117 155 -361 339 -606 456 -47 23 -135
78 -196 124 -73 54 -119 82 -137 82 -26 0 -26 0 -26 78 l0 78 64 57 c106 94
188 233 217 369 10 43 13 48 38 48 85 0 183 67 226 154 30 61 36 159 13 211
-9 22 -14 118 -18 345 -5 306 -6 316 -29 363 -30 61 -107 130 -167 149 -44 14
-48 18 -59 59 -37 142 -137 239 -298 286 -40 12 -115 16 -332 18 -154 2 -291
1 -305 -1z m495 -154 c116 -12 155 -24 207 -63 56 -42 88 -105 88 -174 0 -75
26 -102 105 -112 128 -15 138 -39 143 -318 3 -174 2 -213 -10 -213 -7 0 -30 3
-50 6 l-37 6 -12 71 c-33 200 -112 338 -224 392 -68 34 -83 29 -162 -50 -122
-123 -245 -166 -483 -171 -156 -2 -235 -16 -301 -50 -17 -8 -32 -14 -33 -12
-2 2 -13 56 -26 121 -17 88 -21 137 -17 193 14 181 146 331 327 370 66 15 360
17 485 4z m199 -592 c73 -97 96 -231 96 -570 0 -251 -1 -262 -25 -335 -32 -94
-81 -169 -151 -232 -100 -89 -212 -131 -349 -131 -150 0 -253 42 -368 149 -80
76 -140 186 -156 291 -17 101 -14 483 3 524 35 84 125 114 356 119 111 3 185
10 225 21 93 25 219 92 277 146 29 27 56 49 60 50 4 0 18 -15 32 -32z m-1114
-563 c0 -69 -2 -125 -5 -125 -20 0 -69 36 -85 63 -34 56 -20 122 36 166 50 40
54 33 54 -104z m1431 108 c78 -46 76 -165 -4 -213 -56 -34 -57 -32 -57 105 0
138 2 142 61 108z m-511 -1036 l0 -104 -114 -101 c-63 -56 -120 -102 -126
-102 -6 0 -55 39 -110 88 l-99 87 -1 114 0 114 33 -7 c142 -30 255 -31 348 -2
72 23 69 27 69 -87z m-630 -257 c0 -14 -9 -40 -20 -57 l-20 -33 -142 0 -143 1
75 39 c41 22 107 64 145 94 l70 54 17 -37 c10 -20 18 -47 18 -61z m840 79 c33
-28 33 -92 1 -138 l-22 -31 -112 0 -112 1 65 57 c36 31 83 74 105 94 22 21 42
37 45 37 3 0 16 -9 30 -20z m565 -354 l25 -24 0 -577 0 -578 -22 -23 -21 -23
-998 0 -998 0 -20 26 c-21 26 -21 35 -21 601 l0 574 25 24 24 25 991 0 991 0
24 -25z m-2244 -590 c-34 -47 -101 -90 -153 -100 -30 -5 -38 -3 -38 9 0 30
129 384 155 427 62 99 60 102 63 -107 l2 -188 -29 -41z m2484 351 c18 -28 53
-109 79 -179 46 -127 46 -129 30 -163 -29 -61 -108 -124 -154 -124 -7 0 -10
90 -10 266 0 188 3 263 11 258 6 -3 25 -29 44 -58z"/>
<path d="M2581 1573 c-15 -13 -47 -109 -121 -361 -91 -311 -100 -345 -88 -370
20 -41 59 -56 102 -38 40 16 24 -26 160 438 42 142 76 266 76 277 0 10 -9 30
-21 45 -25 31 -76 35 -108 9z"/>
<path d="M2078 1372 c-114 -114 -128 -132 -128 -162 0 -30 14 -48 128 -162
111 -112 132 -128 160 -128 41 0 82 38 82 76 0 20 -22 49 -90 118 l-90 92 76
74 c109 109 126 149 79 195 -16 16 -35 25 -57 25 -28 0 -49 -16 -160 -128z"/>
<path d="M2805 1475 c-47 -46 -36 -76 62 -176 l86 -89 -86 -89 c-74 -77 -87
-95 -87 -124 0 -44 34 -77 80 -77 29 0 48 14 147 113 125 122 148 155 138 195
-6 25 -175 201 -239 250 -39 29 -71 28 -101 -3z"/>
</g>
</svg>
